<svg width="1200" height="420" viewBox="0 0 1200 420" fill="none" xmlns="http://www.w3.org/2000/svg">
  <defs>
    <linearGradient id="bg" x1="0" y1="0" x2="1200" y2="420" gradientUnits="userSpaceOnUse">
      <stop stop-color="#F7FAFF"/>
      <stop offset="0.48" stop-color="#EEF4FF"/>
      <stop offset="1" stop-color="#F8FBFF"/>
    </linearGradient>
    <linearGradient id="whale" x1="189" y1="104" x2="335" y2="271" gradientUnits="userSpaceOnUse">
      <stop stop-color="#2B73FF"/>
      <stop offset="1" stop-color="#6B5CFF"/>
    </linearGradient>
    <filter id="shadow" x="-20%" y="-20%" width="140%" height="140%" color-interpolation-filters="sRGB">
      <feDropShadow dx="0" dy="18" stdDeviation="18" flood-color="#2456D6" flood-opacity="0.16"/>
    </filter>
    <filter id="soft" x="-20%" y="-20%" width="140%" height="140%" color-interpolation-filters="sRGB">
      <feDropShadow dx="0" dy="12" stdDeviation="24" flood-color="#0B2B72" flood-opacity="0.10"/>
    </filter>
  </defs>

  <rect width="1200" height="420" rx="34" fill="url(#bg)"/>
  <path d="M908 52C997 41 1072 75 1120 144C1168 213 1142 297 1069 336C992 377 896 346 864 274C833 204 823 63 908 52Z" fill="#DCE9FF" opacity="0.55"/>
  <path d="M107 303C65 238 76 145 148 105C220 65 318 89 354 161C390 233 344 328 266 349C202 366 140 353 107 303Z" fill="#E8F1FF" opacity="0.9"/>

  <g filter="url(#shadow)">
    <path d="M262 115C234 115 210 133 201 159C180 161 162 176 158 197C152 225 173 251 201 254H286C327 254 360 221 360 180C360 139 327 115 286 115H262Z" fill="url(#whale)"/>
    <path d="M298 118C314 91 344 72 380 70C371 99 348 122 318 133L298 118Z" fill="#355BFF"/>
    <path d="M239 145C260 129 289 128 312 146C286 156 261 157 239 145Z" fill="#7DA2FF" opacity="0.72"/>
    <path d="M198 203L179 185C171 178 159 184 160 195L163 225C164 236 177 240 184 232L198 203Z" fill="#2F70FF"/>
    <circle cx="223" cy="177" r="9" fill="white"/>
    <path d="M250 183L270 207L250 232" stroke="white" stroke-width="12" stroke-linecap="round" stroke-linejoin="round"/>
    <path d="M286 229H321" stroke="white" stroke-width="12" stroke-linecap="round"/>
  </g>

  <g filter="url(#soft)">
    <rect x="98" y="64" width="1004" height="292" rx="30" fill="white" fill-opacity="0.72"/>
    <rect x="98.5" y="64.5" width="1003" height="291" rx="29.5" stroke="#D9E4F7"/>
  </g>

  <text x="430" y="143" fill="#111827" font-family="-apple-system, BlinkMacSystemFont, 'Segoe UI', 'PingFang SC', 'Microsoft YaHei', sans-serif" font-size="74" font-weight="800" letter-spacing="0">deepcodex</text>
  <text x="433" y="195" fill="#42526B" font-family="-apple-system, BlinkMacSystemFont, 'Segoe UI', 'PingFang SC', 'Microsoft YaHei', sans-serif" font-size="28" font-weight="600">Codex Desktop × DeepSeek 本地补丁</text>
  <text x="433" y="240" fill="#5A6475" font-family="-apple-system, BlinkMacSystemFont, 'Segoe UI', 'PingFang SC', 'Microsoft YaHei', sans-serif" font-size="22" font-weight="500">可双开 · 独立图标 · 输入 DeepSeek API key · 兼容 Codex 插件/skill</text>

  <g font-family="-apple-system, BlinkMacSystemFont, 'Segoe UI', 'PingFang SC', 'Microsoft YaHei', sans-serif" font-size="18" font-weight="700">
    <rect x="433" y="274" width="86" height="38" rx="19" fill="#EAF1FF"/>
    <text x="458" y="299" fill="#2557D6">双开</text>
    <rect x="532" y="274" width="116" height="38" rx="19" fill="#EEF0FF"/>
    <text x="553" y="299" fill="#5145CD">独立 logo</text>
    <rect x="661" y="274" width="126" height="38" rx="19" fill="#EBF8F2"/>
    <text x="684" y="299" fill="#117B52">输入 key 即用</text>
    <rect x="800" y="274" width="176" height="38" rx="19" fill="#FFF4DD"/>
    <text x="824" y="299" fill="#9A5B00">插件/skill 兼容</text>
  </g>

  <g>
    <rect x="850" y="78" width="214" height="50" rx="25" fill="#101828"/>
    <text x="879" y="111" fill="white" font-family="-apple-system, BlinkMacSystemFont, 'Segoe UI', 'PingFang SC', 'Microsoft YaHei', sans-serif" font-size="22" font-weight="800">Preview Build</text>
  </g>
</svg>
